<svg width="65" height="73" viewBox="0 0 65 73" fill="none" xmlns="http://www.w3.org/2000/svg">
<path d="M16.1986 18.0308C16.1986 8.072 23.4525 0 32.3987 0C41.3477 0 48.5987 8.072 48.5987 18.0308H16.1986ZM16.1986 54.0909C16.1986 44.1337 23.4525 36.0601 32.3987 36.0601C23.4525 36.0601 16.1986 27.9896 16.1986 18.0308C7.25245 18.0308 0 26.1029 0 36.0601C0 46.0205 7.25245 54.0909 16.1986 54.0909ZM16.1986 54.0909C16.1986 64.0513 23.4525 72.1217 32.3987 72.1217C41.3477 72.1217 48.5987 64.0513 48.5987 54.0909H16.1986ZM32.3987 36.0601C41.3477 36.0601 48.5987 44.1337 48.5987 54.0909C57.5463 54.0909 64.8002 46.0205 64.8002 36.0601C64.8002 26.1029 57.5463 18.0308 48.5987 18.0308C48.5987 27.9896 41.3477 36.0601 32.3987 36.0601Z" fill="#007A73"/>
</svg>
