<svg width="18" height="16" viewBox="0 0 18 16" fill="none" xmlns="http://www.w3.org/2000/svg">
<path d="M14.75 10.75V9.25H17C17.2125 9.25 17.3906 9.3219 17.5344 9.4657C17.6781 9.60952 17.75 9.78772 17.75 10.0003C17.75 10.2129 17.6781 10.391 17.5344 10.5346C17.3906 10.6782 17.2125 10.75 17 10.75H14.75ZM14.75 14.75V13.25H17C17.2125 13.25 17.3906 13.3219 17.5344 13.4657C17.6781 13.6095 17.75 13.7877 17.75 14.0003C17.75 14.2129 17.6781 14.391 17.5344 14.5346C17.3906 14.6782 17.2125 14.75 17 14.75H14.75ZM11 15.75C10.5141 15.75 10.1009 15.5541 9.76058 15.1625C9.42019 14.7708 9.25 14.3 9.25 13.75H7.25V10.25H9.25C9.25 9.7 9.42019 9.22917 9.76058 8.8375C10.1009 8.44583 10.5141 8.25 11 8.25H13.75V15.75H11ZM3.99998 12.75C2.96408 12.75 2.08011 12.3839 1.34807 11.6519C0.616025 10.9198 0.25 10.0359 0.25 8.99998C0.25 7.96408 0.616025 7.08011 1.34807 6.34808C2.08011 5.61603 2.96408 5.25 3.99998 5.25H5.49998C5.98074 5.25 6.39261 5.07853 6.73558 4.73558C7.07853 4.39261 7.25 3.98074 7.25 3.49997C7.25 3.01921 7.07853 2.60734 6.73558 2.26437C6.39261 1.92142 5.98074 1.74995 5.49998 1.74995H1.99997C1.78747 1.74995 1.60936 1.67805 1.46563 1.53425C1.32188 1.39043 1.25 1.21223 1.25 0.99965C1.25 0.78705 1.32188 0.608958 1.46563 0.465375C1.60936 0.321791 1.78747 0.25 1.99997 0.25H5.49998C6.40254 0.25 7.16984 0.566025 7.80188 1.19808C8.43393 1.83011 8.74995 2.59741 8.74995 3.49997C8.74995 4.40254 8.43393 5.16984 7.80188 5.80187C7.16984 6.43392 6.40254 6.74995 5.49998 6.74995H3.99998C3.38123 6.74995 2.85153 6.97045 2.4109 7.41145C1.97027 7.85245 1.74995 8.38258 1.74995 9.00185C1.74995 9.62112 1.97027 10.1506 2.4109 10.5904C2.85153 11.0301 3.38123 11.25 3.99998 11.25H6.25V12.75H3.99998Z" fill="#1C1B1F"/>
</svg>
